<?xml version="1.0" standalone="yes"?>

<svg version="1.1" viewBox="0.0 0.0 1431.1732283464567 568.5958005249344" fill="none" stroke="none" stroke-linecap="square" stroke-miterlimit="10" xmlns="http://www.w3.org/2000/svg" xmlns:xlink="http://www.w3.org/1999/xlink"><clipPath id="p.0"><path d="m0 0l1431.1732 0l0 568.5958l-1431.1732 0l0 -568.5958z" clip-rule="nonzero"></path></clipPath><g clip-path="url(#p.0)"><path fill="#000000" fill-opacity="0.0" d="m0 0l1431.1732 0l0 568.5958l-1431.1732 0z" fill-rule="nonzero"></path><path fill="#c9daf8" d="m-0.35958004 -3.929134l1431.5276 0l0 179.2126l-1431.5276 0z" fill-rule="nonzero"></path><path stroke="#000000" stroke-width="1.0" stroke-linejoin="round" stroke-linecap="butt" d="m-0.35958004 -3.929134l1431.5276 0l0 179.2126l-1431.5276 0z" fill-rule="nonzero"></path><path fill="#cfe2f3" d="m1428.5558 7.3745694l-37.03833 0l0 51.66538l-82.7843 0l0 -62.96777l-75.16052 0l0 96.872246l-104.56787 -1.6146317l0 -92.028366l-117.64392 0l0 88.79911l-70.8031 0l0 -36.327763l-71.890625 0l0 63.77373l-71.89429 0l0 -49.24209l-56.639587 0l0 108.97791l690.60126 0z" fill-rule="nonzero"></path><path stroke="#000000" stroke-width="1.0" stroke-linejoin="round" stroke-linecap="butt" d="m1428.5558 7.3745694l-37.03833 0l0 51.66538l-82.7843 0l0 -62.96777l-75.16052 0l0 96.872246l-104.56787 -1.6146317l0 -92.028366l-117.64392 0l0 88.79911l-70.8031 0l0 -36.327763l-71.890625 0l0 63.77373l-71.89429 0l0 -49.24209l-56.639587 0l0 108.97791l690.60126 0z" fill-rule="nonzero"></path><path fill="#6fa8dc" d="m1426.0522 57.397957l-126.92883 0l0 -22.811344l-143.54932 0l0 55.507435l-52.88867 0l0 -53.227314l-102.75 0l0 31.936893l-111.81708 0l0 64.63299l-151.10773 0l0 41.06244l690.5553 0z" fill-rule="nonzero"></path><path stroke="#000000" stroke-width="1.0" stroke-linejoin="round" stroke-linecap="butt" d="m1426.0522 57.397957l-126.92883 0l0 -22.811344l-143.54932 0l0 55.507435l-52.88867 0l0 -53.227314l-102.75 0l0 31.936893l-111.81708 0l0 64.63299l-151.10773 0l0 41.06244l690.5553 0z" fill-rule="nonzero"></path><path fill="#0b5394" d="m1419.2821 28.449297l-75.34412 0l0 84.57014l-26.308838 0l0 -22.305435l-23.920654 0l0 -83.63919l-95.674805 0l0 152.4081l-25.114746 0l0 -40.890205l-143.5122 0l0 -51.111977l-55.01361 0l0 84.57013l-20.330566 0l0 -54.83265l-196.13373 0l0 78.06283l661.3533 0z" fill-rule="nonzero"></path><path stroke="#000000" stroke-width="1.0" stroke-linejoin="round" stroke-linecap="butt" d="m1419.2821 28.449297l-75.34412 0l0 84.57014l-26.308838 0l0 -22.305435l-23.920654 0l0 -83.63919l-95.674805 0l0 152.4081l-25.114746 0l0 -40.890205l-143.5122 0l0 -51.111977l-55.01361 0l0 84.57013l-20.330566 0l0 -54.83265l-196.13373 0l0 78.06283l661.3533 0z" fill-rule="nonzero"></path><path fill="#073763" d="m742.48047 173.7645l0 -31.831253l50.0755 0l0 31.831253l53.56726 0l0 -43.201736l66.375916 0l0 44.71762l47.74237 0l0 -30.315353l88.50116 0l0 29.556152l107.13464 0l0 -36.378937l110.626465 0l0 -26.52436l47.746216 0l0 62.146614l71.0343 0l0 -30.315369l44.25049 0l0 31.072052z" fill-rule="nonzero"></path><path stroke="#000000" stroke-width="1.0" stroke-linejoin="round" stroke-linecap="butt" d="m742.48047 173.7645l0 -31.831253l50.0755 0l0 31.831253l53.56726 0l0 -43.201736l66.375916 0l0 44.71762l47.74237 0l0 -30.315353l88.50116 0l0 29.556152l107.13464 0l0 -36.378937l110.626465 0l0 -26.52436l47.746216 0l0 62.146614l71.0343 0l0 -30.315369l44.25049 0l0 31.072052z" fill-rule="nonzero"></path><path fill="#000000" fill-opacity="0.0" d="m-3.1496062 -4.7296586l740.1575 0l0 179.2126l-740.1575 0z" fill-rule="nonzero"></path><path fill="#000000" d="m193.5385 75.535385q0 2.71875 -1.265625 5.375q-1.265625 2.65625 -3.546875 4.5q-2.5 2.0 -5.828125 3.125q-3.328125 1.125 -8.015625 1.125q-5.03125 0 -9.046875 -0.9375q-4.015625 -0.9375 -8.171875 -2.78125l0 -7.75l0.4375 0q3.53125 2.9375 8.15625 4.53125q4.625 1.59375 8.6875 1.59375q5.75 0 8.953125 -2.15625q3.203125 -2.15625 3.203125 -5.75q0 -3.09375 -1.515625 -4.5625q-1.515625 -1.46875 -4.609375 -2.28125q-2.34375 -0.625 -5.078125 -1.03125q-2.734375 -0.40625 -5.796875 -1.03125q-6.1875 -1.3125 -9.171875 -4.484375q-2.984375 -3.171875 -2.984375 -8.265625q0 -5.84375 4.9375 -9.578125q4.9375 -3.734375 12.53125 -3.734375q4.90625 0 9.0 0.9375q4.09375 0.9375 7.25 2.3125l0 7.3125l-0.4375 0q-2.65625 -2.25 -6.984375 -3.734375q-4.328125 -1.484375 -8.859375 -1.484375q-4.96875 0 -7.984375 2.0625q-3.015625 2.0625 -3.015625 5.3125q0 2.90625 1.5 4.5625q1.5 1.65625 5.28125 2.53125q2.0 0.4375 5.6875 1.0625q3.6875 0.625 6.25 1.28125q5.1875 1.375 7.8125 4.15625q2.625 2.78125 2.625 7.78125zm27.59375 12.96875q-1.65625 0.4375 -3.609375 0.71875q-1.953125 0.28125 -3.484375 0.28125q-5.34375 0 -8.125 -2.875q-2.78125 -2.875 -2.78125 -9.21875l0 -18.5625l-3.96875 0l0 -4.9375l3.96875 0l0 -10.03125l5.875 0l0 10.03125l12.125 0l0 4.9375l-12.125 0l0 15.90625q0 2.75 0.125 4.296875q0.125 1.546875 0.875 2.890625q0.6875 1.25 1.890625 1.828125q1.203125 0.578125 3.671875 0.578125q1.4375 0 3.0 -0.421875q1.5625 -0.421875 2.25 -0.703125l0.3125 0l0 5.28125zm36.312515 -16.53125l-25.718765 0q0 3.21875 0.96875 5.609375q0.96875 2.390625 2.65625 3.921875q1.625 1.5 3.859375 2.25q2.234375 0.75 4.921875 0.75q3.5625 0 7.171875 -1.421875q3.609375 -1.421875 5.1406403 -2.796875l0.3125 0l0 6.40625q-2.9687653 1.25 -6.0625153 2.09375q-3.09375 0.84375 -6.5 0.84375q-8.6875 0 -13.5625 -4.703125q-4.875 -4.703125 -4.875 -13.359375q0 -8.5625 4.671875 -13.59375q4.671875 -5.03125 12.296875 -5.03125q7.0625 0 10.890625 4.125q3.8281403 4.125 3.8281403 11.71875l0 3.1875zm-5.7187653 -4.5q-0.03125 -4.625 -2.328125 -7.15625q-2.296875 -2.53125 -6.984375 -2.53125q-4.71875 0 -7.515625 2.78125q-2.796875 2.78125 -3.171875 6.90625l20.0 0zm44.812515 -13.5625l-14.125 34.90625l-5.90625 0l-14.03125 -34.90625l6.375 0l10.8125 27.78125l10.71875 -27.78125l6.15625 0zm36.90625 18.0625l-25.71875 0q0 3.21875 0.96875 5.609375q0.96875 2.390625 2.65625 3.921875q1.625 1.5 3.859375 2.25q2.234375 0.75 4.921875 0.75q3.5625 0 7.171875 -1.421875q3.609375 -1.421875 5.140625 -2.796875l0.3125 0l0 6.40625q-2.96875 1.25 -6.0625 2.09375q-3.09375 0.84375 -6.5 0.84375q-8.6875 0 -13.5625 -4.703125q-4.875 -4.703125 -4.875 -13.359375q0 -8.5625 4.671875 -13.59375q4.671875 -5.03125 12.296875 -5.03125q7.0625 0 10.890625 4.125q3.828125 4.125 3.828125 11.71875l0 3.1875zm-5.71875 -4.5q-0.03125 -4.625 -2.328125 -7.15625q-2.296875 -2.53125 -6.984375 -2.53125q-4.71875 0 -7.515625 2.78125q-2.796875 2.78125 -3.171875 6.90625l20.0 0zm76.40625 17.90625q-3.8125 1.75 -8.328125 3.046875q-4.515625 1.296875 -8.734375 1.296875q-5.4375 0 -9.96875 -1.5q-4.53125 -1.5 -7.71875 -4.5q-3.21875 -3.03125 -4.96875 -7.578125q-1.75 -4.546875 -1.75 -10.640625q0 -11.15625 6.515625 -17.609375q6.515625 -6.453125 17.890625 -6.453125q3.96875 0 8.109375 0.953125q4.140625 0.953125 8.921875 3.234375l0 7.34375l-0.5625 0q-0.96875 -0.75 -2.8125 -1.96875q-1.84375 -1.21875 -3.625 -2.03125q-2.15625 -0.96875 -4.890625 -1.609375q-2.734375 -0.640625 -6.203125 -0.640625q-7.8125 0 -12.359375 5.015625q-4.546875 5.015625 -4.546875 13.578125q0 9.03125 4.75 14.046875q4.75 5.015625 12.9375 5.015625q3.0 0 5.984375 -0.59375q2.984375 -0.59375 5.234375 -1.53125l0 -11.40625l-12.46875 0l0 -5.4375l18.59375 0l0 19.96875zm39.28125 3.4375l-5.875 0l0 -3.875q-2.96875 2.34375 -5.6875 3.59375q-2.71875 1.25 -6.0 1.25q-5.5 0 -8.5625 -3.359375q-3.0625 -3.359375 -3.0625 -9.859375l0 -22.65625l5.875 0l0 19.875q0 2.65625 0.25 4.546875q0.25 1.890625 1.0625 3.234375q0.84375 1.375 2.1875 2.0q1.34375 0.625 3.90625 0.625q2.28125 0 4.984375 -1.1875q2.703125 -1.1875 5.046875 -3.03125l0 -26.0625l5.875 0l0 34.90625zm40.78125 -16.84375l-25.71875 0q0 3.21875 0.96875 5.609375q0.96875 2.390625 2.65625 3.921875q1.625 1.5 3.859375 2.25q2.234375 0.75 4.921875 0.75q3.5625 0 7.171875 -1.421875q3.609375 -1.421875 5.140625 -2.796875l0.3125 0l0 6.40625q-2.96875 1.25 -6.0625 2.09375q-3.09375 0.84375 -6.5 0.84375q-8.6875 0 -13.5625 -4.703125q-4.875 -4.703125 -4.875 -13.359375q0 -8.5625 4.671875 -13.59375q4.671875 -5.03125 12.296875 -5.03125q7.0625 0 10.890625 4.125q3.828125 4.125 3.828125 11.71875l0 3.1875zm-5.71875 -4.5q-0.03125 -4.625 -2.328125 -7.15625q-2.296875 -2.53125 -6.984375 -2.53125q-4.71875 0 -7.515625 2.78125q-2.796875 2.78125 -3.171875 6.90625l20.0 0zm36.40625 -7.15625l-0.3125 0q-1.3125 -0.3125 -2.546875 -0.453125q-1.234375 -0.140625 -2.921875 -0.140625q-2.71875 0 -5.25 1.203125q-2.53125 1.203125 -4.875 3.109375l0 24.78125l-5.875 0l0 -34.90625l5.875 0l0 5.15625q3.5 -2.8125 6.171875 -3.984375q2.671875 -1.171875 5.453125 -1.171875q1.53125 0 2.21875 0.078125q0.6875 0.078125 2.0625 0.296875l0 6.03125zm27.3125 0l-0.3125 0q-1.3125 -0.3125 -2.546875 -0.453125q-1.234375 -0.140625 -2.921875 -0.140625q-2.71875 0 -5.25 1.203125q-2.53125 1.203125 -4.875 3.109375l0 24.78125l-5.875 0l0 -34.90625l5.875 0l0 5.15625q3.5 -2.8125 6.171875 -3.984375q2.671875 -1.171875 5.453125 -1.171875q1.53125 0 2.21875 0.078125q0.6875 0.078125 2.0625 0.296875l0 6.03125zm32.65625 28.5l-5.84375 0l0 -3.71875q-0.78125 0.53125 -2.109375 1.484375q-1.328125 0.953125 -2.578125 1.515625q-1.46875 0.71875 -3.375 1.203125q-1.90625 0.484375 -4.46875 0.484375q-4.71875 0 -8.0 -3.125q-3.28125 -3.125 -3.28125 -7.96875q0 -3.96875 1.703125 -6.421875q1.703125 -2.453125 4.859375 -3.859375q3.1875 -1.40625 7.65625 -1.90625q4.46875 -0.5 9.59375 -0.75l0 -0.90625q0 -2.0 -0.703125 -3.3125q-0.703125 -1.3125 -2.015625 -2.0625q-1.25 -0.71875 -3.0 -0.96875q-1.75 -0.25 -3.65625 -0.25q-2.3125 0 -5.15625 0.609375q-2.84375 0.609375 -5.875 1.765625l-0.3125 0l0 -5.96875q1.71875 -0.46875 4.96875 -1.03125q3.25 -0.5625 6.40625 -0.5625q3.6875 0 6.421875 0.609375q2.734375 0.609375 4.734375 2.078125q1.96875 1.4375 3.0 3.71875q1.03125 2.28125 1.03125 5.65625l0 23.6875zm-5.84375 -8.59375l0 -9.71875q-2.6875 0.15625 -6.328125 0.46875q-3.640625 0.3125 -5.765625 0.90625q-2.53125 0.71875 -4.09375 2.234375q-1.5625 1.515625 -1.5625 4.171875q0 3.0 1.8125 4.515625q1.8125 1.515625 5.53125 1.515625q3.09375 0 5.65625 -1.203125q2.5625 -1.203125 4.75 -2.890625z" fill-rule="nonzero"></path><path fill="#000000" d="m283.9643 135.40851q0 0.6875 -0.3125 1.359375q-0.3125 0.65625 -0.890625 1.109375q-0.625 0.5 -1.453125 0.796875q-0.828125 0.28125 -2.0 0.28125q-1.265625 0 -2.265625 -0.234375q-1.0 -0.25 -2.046875 -0.703125l0 -1.9375l0.109375 0q0.890625 0.734375 2.046875 1.140625q1.15625 0.390625 2.171875 0.390625q1.4375 0 2.234375 -0.53125q0.796875 -0.546875 0.796875 -1.453125q0 -0.765625 -0.375 -1.125q-0.375 -0.375 -1.15625 -0.578125q-0.578125 -0.15625 -1.265625 -0.25q-0.6875 -0.109375 -1.453125 -0.265625q-1.546875 -0.328125 -2.296875 -1.125q-0.734375 -0.796875 -0.734375 -2.0625q0 -1.46875 1.234375 -2.390625q1.234375 -0.9375 3.125 -0.9375q1.234375 0 2.25 0.234375q1.03125 0.234375 1.8125 0.578125l0 1.828125l-0.109375 0q-0.65625 -0.5625 -1.75 -0.9375q-1.078125 -0.375 -2.203125 -0.375q-1.25 0 -2.0 0.515625q-0.75 0.515625 -0.75 1.328125q0 0.734375 0.375 1.15625q0.375 0.40625 1.3125 0.625q0.5 0.109375 1.421875 0.265625q0.921875 0.15625 1.5625 0.3125q1.296875 0.34375 1.953125 1.046875q0.65625 0.6875 0.65625 1.9375zm9.453125 2.328125q0 2.234375 -1.015625 3.265625q-1.0 1.046875 -3.09375 1.046875q-0.703125 0 -1.359375 -0.109375q-0.65625 -0.09375 -1.296875 -0.265625l0 -1.5l0.078125 0q0.359375 0.140625 1.140625 0.34375q0.78125 0.203125 1.5625 0.203125q0.75 0 1.234375 -0.1875q0.5 -0.171875 0.765625 -0.484375q0.28125 -0.3125 0.390625 -0.75q0.125 -0.421875 0.125 -0.953125l0 -0.796875q-0.671875 0.53125 -1.28125 0.796875q-0.59375 0.25 -1.53125 0.25q-1.5625 0 -2.484375 -1.125q-0.921875 -1.125 -0.921875 -3.1875q0 -1.125 0.3125 -1.9375q0.328125 -0.8125 0.875 -1.40625q0.5 -0.5625 1.21875 -0.859375q0.734375 -0.3125 1.453125 -0.3125q0.765625 0 1.265625 0.15625q0.515625 0.140625 1.09375 0.453125l0.09375 -0.375l1.375 0l0 7.734375zm-1.46875 -1.40625l0 -4.75q-0.59375 -0.265625 -1.09375 -0.375q-0.5 -0.125 -1.0 -0.125q-1.21875 0 -1.921875 0.8125q-0.6875 0.8125 -0.6875 2.359375q0 1.46875 0.515625 2.234375q0.515625 0.75 1.71875 0.75q0.640625 0 1.28125 -0.234375q0.640625 -0.25 1.1875 -0.671875zm11.59375 2.40625l-1.46875 0l0 -0.96875q-0.75 0.578125 -1.4375 0.90625q-0.671875 0.3125 -1.484375 0.3125q-1.375 0 -2.140625 -0.84375q-0.765625 -0.84375 -0.765625 -2.46875l0 -5.671875l1.46875 0l0 4.96875q0 0.671875 0.0625 1.140625q0.0625 0.46875 0.265625 0.8125q0.203125 0.34375 0.53125 0.5q0.34375 0.15625 0.984375 0.15625q0.578125 0 1.25 -0.296875q0.671875 -0.296875 1.265625 -0.765625l0 -6.515625l1.46875 0l0 8.734375zm10.1875 -4.21875l-6.421875 0q0 0.8125 0.234375 1.40625q0.25 0.59375 0.671875 0.984375q0.40625 0.375 0.953125 0.5625q0.5625 0.1875 1.234375 0.1875q0.890625 0 1.796875 -0.359375q0.90625 -0.359375 1.28125 -0.703125l0.078125 0l0 1.609375q-0.734375 0.3125 -1.515625 0.53125q-0.765625 0.203125 -1.625 0.203125q-2.171875 0 -3.390625 -1.171875q-1.21875 -1.1875 -1.21875 -3.34375q0 -2.140625 1.171875 -3.390625q1.171875 -1.265625 3.078125 -1.265625q1.765625 0 2.71875 1.03125q0.953125 1.03125 0.953125 2.921875l0 0.796875zm-1.421875 -1.125q-0.015625 -1.15625 -0.59375 -1.78125q-0.5625 -0.640625 -1.734375 -0.640625q-1.1875 0 -1.890625 0.703125q-0.6875 0.6875 -0.78125 1.71875l5.0 0zm9.09375 -1.78125l-0.078125 0q-0.328125 -0.078125 -0.640625 -0.109375q-0.296875 -0.046875 -0.71875 -0.046875q-0.6875 0 -1.328125 0.3125q-0.625 0.296875 -1.203125 0.765625l0 6.203125l-1.46875 0l0 -8.734375l1.46875 0l0 1.296875q0.875 -0.703125 1.53125 -1.0q0.671875 -0.296875 1.375 -0.296875q0.375 0 0.546875 0.03125q0.171875 0.015625 0.515625 0.0625l0 1.515625zm6.828125 0l-0.078125 0q-0.328125 -0.078125 -0.640625 -0.109375q-0.296875 -0.046875 -0.71875 -0.046875q-0.6875 0 -1.328125 0.3125q-0.625 0.296875 -1.203125 0.765625l0 6.203125l-1.46875 0l0 -8.734375l1.46875 0l0 1.296875q0.875 -0.703125 1.53125 -1.0q0.671875 -0.296875 1.375 -0.296875q0.375 0 0.546875 0.03125q0.171875 0.015625 0.515625 0.0625l0 1.515625zm8.171875 7.125l-1.46875 0l0 -0.9375q-0.1875 0.140625 -0.53125 0.375q-0.328125 0.234375 -0.640625 0.375q-0.359375 0.1875 -0.84375 0.3125q-0.46875 0.125 -1.109375 0.125q-1.1875 0 -2.015625 -0.78125q-0.8125 -0.796875 -0.8125 -2.0q0 -1.0 0.421875 -1.609375q0.4375 -0.609375 1.21875 -0.96875q0.796875 -0.34375 1.90625 -0.46875q1.125 -0.125 2.40625 -0.1875l0 -0.234375q0 -0.5 -0.171875 -0.828125q-0.171875 -0.328125 -0.5 -0.515625q-0.3125 -0.171875 -0.75 -0.234375q-0.4375 -0.0625 -0.921875 -0.0625q-0.578125 0 -1.296875 0.15625q-0.703125 0.140625 -1.453125 0.4375l-0.078125 0l0 -1.5q0.421875 -0.109375 1.234375 -0.25q0.8125 -0.140625 1.609375 -0.140625q0.921875 0 1.59375 0.15625q0.6875 0.140625 1.1875 0.515625q0.5 0.359375 0.75 0.9375q0.265625 0.5625 0.265625 1.40625l0 5.921875zm-1.46875 -2.15625l0 -2.421875q-0.671875 0.03125 -1.578125 0.109375q-0.90625 0.078125 -1.4375 0.234375q-0.640625 0.171875 -1.03125 0.5625q-0.390625 0.375 -0.390625 1.03125q0 0.75 0.453125 1.140625q0.453125 0.375 1.390625 0.375q0.765625 0 1.40625 -0.296875q0.640625 -0.3125 1.1875 -0.734375zm11.96875 -3.671875q0 3.140625 -0.984375 4.609375q-0.984375 1.46875 -3.046875 1.46875q-2.09375 0 -3.0625 -1.484375q-0.953125 -1.5 -0.953125 -4.578125q0 -3.09375 0.96875 -4.578125q0.984375 -1.484375 3.046875 -1.484375q2.09375 0 3.0625 1.515625q0.96875 1.5 0.96875 4.53125zm-2.0625 3.546875q0.28125 -0.625 0.375 -1.484375q0.09375 -0.859375 0.09375 -2.0625q0 -1.1875 -0.09375 -2.0625q-0.09375 -0.875 -0.375 -1.484375q-0.28125 -0.59375 -0.75 -0.890625q-0.46875 -0.3125 -1.21875 -0.3125q-0.734375 0 -1.21875 0.3125q-0.46875 0.296875 -0.75 0.90625q-0.265625 0.578125 -0.375 1.515625q-0.09375 0.921875 -0.09375 2.03125q0 1.21875 0.078125 2.046875q0.09375 0.8125 0.375 1.46875q0.265625 0.609375 0.734375 0.9375q0.46875 0.3125 1.25 0.3125q0.734375 0 1.21875 -0.296875q0.484375 -0.3125 0.75 -0.9375zm12.25 2.28125l-7.875 0l0 -1.640625q0.8125 -0.703125 1.640625 -1.40625q0.828125 -0.703125 1.53125 -1.390625q1.5 -1.453125 2.046875 -2.3125q0.5625 -0.859375 0.5625 -1.84375q0 -0.90625 -0.59375 -1.421875q-0.59375 -0.515625 -1.671875 -0.515625q-0.703125 0 -1.53125 0.25q-0.828125 0.25 -1.625 0.765625l-0.078125 0l0 -1.640625q0.5625 -0.265625 1.484375 -0.484375q0.921875 -0.234375 1.796875 -0.234375q1.78125 0 2.796875 0.859375q1.015625 0.859375 1.015625 2.34375q0 0.65625 -0.171875 1.234375q-0.15625 0.578125 -0.484375 1.09375q-0.3125 0.484375 -0.71875 0.953125q-0.40625 0.46875 -1.0 1.03125q-0.828125 0.828125 -1.71875 1.59375q-0.890625 0.765625 -1.671875 1.421875l6.265625 0l0 1.34375zm15.640625 -5.1875q0 1.09375 -0.3125 2.109375q-0.3125 1.015625 -0.90625 1.84375l-3.4375 0l-0.203125 -0.90625q-0.578125 0.46875 -1.109375 0.71875q-0.53125 0.25 -1.21875 0.25q-1.3125 0 -2.109375 -0.984375q-0.78125 -1.0 -0.78125 -2.78125q0 -1.765625 0.953125 -2.8125q0.96875 -1.0625 2.3125 -1.0625q0.5625 0 1.0 0.125q0.4375 0.125 0.953125 0.390625l0 -0.375l1.234375 0l0 6.578125l1.90625 0q0.328125 -0.59375 0.484375 -1.46875q0.171875 -0.875 0.171875 -1.578125q0 -1.28125 -0.359375 -2.328125q-0.34375 -1.046875 -1.03125 -1.796875q-0.6875 -0.75 -1.703125 -1.140625q-1.015625 -0.40625 -2.3125 -0.40625q-1.25 0 -2.28125 0.453125q-1.03125 0.453125 -1.78125 1.21875q-0.75 0.765625 -1.171875 1.828125q-0.421875 1.0625 -0.421875 2.265625q0 1.296875 0.40625 2.359375q0.40625 1.0625 1.140625 1.828125q0.78125 0.78125 1.8125 1.1875q1.046875 0.40625 2.265625 0.40625q0.671875 0 1.390625 -0.09375q0.71875 -0.078125 1.375 -0.265625l0 1.109375q-0.765625 0.171875 -1.421875 0.21875q-0.65625 0.0625 -1.34375 0.0625q-1.453125 0 -2.703125 -0.5q-1.234375 -0.484375 -2.125 -1.390625q-0.90625 -0.890625 -1.40625 -2.140625q-0.5 -1.265625 -0.5 -2.796875q0 -1.4375 0.515625 -2.6875q0.53125 -1.25 1.4375 -2.15625q0.90625 -0.921875 2.140625 -1.4375q1.25 -0.53125 2.671875 -0.53125q1.53125 0 2.734375 0.484375q1.203125 0.484375 2.03125 1.359375q0.828125 0.875 1.265625 2.109375q0.4375 1.234375 0.4375 2.734375zm-4.875 2.0l0 -4.046875q-0.5 -0.234375 -0.890625 -0.328125q-0.390625 -0.09375 -0.828125 -0.09375q-1.015625 0 -1.59375 0.703125q-0.5625 0.703125 -0.5625 2.0q0 1.265625 0.453125 1.921875q0.453125 0.65625 1.421875 0.65625q0.515625 0 1.03125 -0.234375q0.53125 -0.25 0.96875 -0.578125zm17.53125 2.328125q-0.953125 0.4375 -2.078125 0.765625q-1.125 0.328125 -2.1875 0.328125q-1.359375 0 -2.5 -0.375q-1.125 -0.390625 -1.921875 -1.140625q-0.796875 -0.75 -1.234375 -1.890625q-0.4375 -1.140625 -0.4375 -2.65625q0 -2.796875 1.625 -4.40625q1.625 -1.609375 4.46875 -1.609375q1.0 0 2.03125 0.234375q1.03125 0.234375 2.234375 0.8125l0 1.828125l-0.140625 0q-0.25 -0.1875 -0.71875 -0.484375q-0.453125 -0.3125 -0.890625 -0.515625q-0.546875 -0.234375 -1.234375 -0.390625q-0.671875 -0.171875 -1.546875 -0.171875q-1.953125 0 -3.09375 1.265625q-1.125 1.25 -1.125 3.390625q0 2.25 1.1875 3.515625q1.1875 1.25 3.234375 1.25q0.75 0 1.484375 -0.140625q0.75 -0.15625 1.3125 -0.390625l0 -2.859375l-3.109375 0l0 -1.359375l4.640625 0l0 5.0zm15.328125 0.859375l-1.46875 0l0 -4.96875q0 -0.5625 -0.0625 -1.078125q-0.046875 -0.53125 -0.203125 -0.84375q-0.1875 -0.34375 -0.53125 -0.515625q-0.328125 -0.171875 -0.953125 -0.171875q-0.625 0 -1.25 0.3125q-0.609375 0.3125 -1.21875 0.78125q0.015625 0.1875 0.03125 0.421875q0.015625 0.234375 0.015625 0.46875l0 5.59375l-1.46875 0l0 -4.96875q0 -0.578125 -0.046875 -1.09375q-0.046875 -0.53125 -0.21875 -0.84375q-0.171875 -0.328125 -0.515625 -0.5q-0.328125 -0.171875 -0.96875 -0.171875q-0.59375 0 -1.203125 0.296875q-0.609375 0.296875 -1.203125 0.765625l0 6.515625l-1.46875 0l0 -8.734375l1.46875 0l0 0.96875q0.6875 -0.5625 1.359375 -0.875q0.6875 -0.328125 1.46875 -0.328125q0.890625 0 1.5 0.375q0.625 0.375 0.9375 1.03125q0.890625 -0.75 1.625 -1.078125q0.734375 -0.328125 1.5625 -0.328125q1.4375 0 2.125 0.875q0.6875 0.859375 0.6875 2.421875l0 5.671875zm9.609375 0l-1.46875 0l0 -0.9375q-0.1875 0.140625 -0.53125 0.375q-0.328125 0.234375 -0.640625 0.375q-0.359375 0.1875 -0.84375 0.3125q-0.46875 0.125 -1.109375 0.125q-1.1875 0 -2.015625 -0.78125q-0.8125 -0.796875 -0.8125 -2.0q0 -1.0 0.421875 -1.609375q0.4375 -0.609375 1.21875 -0.96875q0.796875 -0.34375 1.90625 -0.46875q1.125 -0.125 2.40625 -0.1875l0 -0.234375q0 -0.5 -0.171875 -0.828125q-0.171875 -0.328125 -0.5 -0.515625q-0.3125 -0.171875 -0.75 -0.234375q-0.4375 -0.0625 -0.921875 -0.0625q-0.578125 0 -1.296875 0.15625q-0.703125 0.140625 -1.453125 0.4375l-0.078125 0l0 -1.5q0.421875 -0.109375 1.234375 -0.25q0.8125 -0.140625 1.609375 -0.140625q0.921875 0 1.59375 0.15625q0.6875 0.140625 1.1875 0.515625q0.5 0.359375 0.75 0.9375q0.265625 0.5625 0.265625 1.40625l0 5.921875zm-1.46875 -2.15625l0 -2.421875q-0.671875 0.03125 -1.578125 0.109375q-0.90625 0.078125 -1.4375 0.234375q-0.640625 0.171875 -1.03125 0.5625q-0.390625 0.375 -0.390625 1.03125q0 0.75 0.453125 1.140625q0.453125 0.375 1.390625 0.375q0.765625 0 1.40625 -0.296875q0.640625 -0.3125 1.1875 -0.734375zm5.875 -8.03125l-1.65625 0l0 -1.53125l1.65625 0l0 1.53125zm-0.09375 10.1875l-1.46875 0l0 -8.734375l1.46875 0l0 8.734375zm4.390625 0l-1.46875 0l0 -12.15625l1.46875 0l0 12.15625zm5.296875 0l-1.859375 0l0 -2.234375l1.859375 0l0 2.234375zm9.8828125 -0.546875q-0.734375 0.34375 -1.40625 0.546875q-0.65625 0.203125 -1.390625 0.203125q-0.953125 0 -1.75 -0.28125q-0.78125 -0.28125 -1.34375 -0.84375q-0.5625 -0.5625 -0.875 -1.421875q-0.3125 -0.859375 -0.3125 -2.015625q0 -2.140625 1.171875 -3.359375q1.171875 -1.21875 3.109375 -1.21875q0.75 0 1.46875 0.21875q0.71875 0.203125 1.328125 0.515625l0 1.625l-0.078125 0q-0.671875 -0.515625 -1.390625 -0.796875q-0.71875 -0.28125 -1.390625 -0.28125q-1.25 0 -1.984375 0.84375q-0.71875 0.828125 -0.71875 2.453125q0 1.578125 0.703125 2.4375q0.71875 0.84375 2.0 0.84375q0.4375 0 0.890625 -0.109375q0.46875 -0.125 0.84375 -0.3125q0.3125 -0.171875 0.59375 -0.34375q0.28125 -0.1875 0.453125 -0.328125l0.078125 0l0 1.625zm9.3203125 -3.8125q0 2.125 -1.09375 3.375q-1.09375 1.234375 -2.9375 1.234375q-1.84375 0 -2.9375 -1.234375q-1.09375 -1.25 -1.09375 -3.375q0 -2.140625 1.09375 -3.375q1.09375 -1.234375 2.9375 -1.234375q1.84375 0 2.9375 1.234375q1.09375 1.234375 1.09375 3.375zm-1.515625 0q0 -1.703125 -0.671875 -2.515625q-0.65625 -0.828125 -1.84375 -0.828125q-1.1875 0 -1.859375 0.828125q-0.65625 0.8125 -0.65625 2.515625q0 1.640625 0.65625 2.484375q0.671875 0.84375 1.859375 0.84375q1.171875 0 1.84375 -0.828125q0.671875 -0.84375 0.671875 -2.5zm16.523438 4.359375l-1.46875 0l0 -4.96875q0 -0.5625 -0.0625 -1.078125q-0.046875 -0.53125 -0.203125 -0.84375q-0.1875 -0.34375 -0.53125 -0.515625q-0.328125 -0.171875 -0.953125 -0.171875q-0.625 0 -1.25 0.3125q-0.609375 0.3125 -1.21875 0.78125q0.015625 0.1875 0.03125 0.421875q0.015625 0.234375 0.015625 0.46875l0 5.59375l-1.46875 0l0 -4.96875q0 -0.578125 -0.046875 -1.09375q-0.046875 -0.53125 -0.21875 -0.84375q-0.171875 -0.328125 -0.515625 -0.5q-0.328125 -0.171875 -0.96875 -0.171875q-0.59375 0 -1.203125 0.296875q-0.609375 0.296875 -1.203125 0.765625l0 6.515625l-1.46875 0l0 -8.734375l1.46875 0l0 0.96875q0.6875 -0.5625 1.359375 -0.875q0.6875 -0.328125 1.46875 -0.328125q0.890625 0 1.5 0.375q0.625 0.375 0.9375 1.03125q0.890625 -0.75 1.625 -1.078125q0.734375 -0.328125 1.5625 -0.328125q1.4375 0 2.125 0.875q0.6875 0.859375 0.6875 2.421875l0 5.671875z" fill-rule="nonzero"></path></g></svg>

